<svg aria-roledescription="er" role="graphics-document document" viewBox="0 0 140 386" style="max-width: 140px;" xmlns:xlink="http://www.w3.org/1999/xlink" xmlns="http://www.w3.org/2000/svg" width="100%" id="mermaid-1752649207093"><style>#mermaid-1752649207093{font-family:"trebuchet ms",verdana,arial,sans-serif;font-size:16px;fill:#333;}#mermaid-1752649207093 .error-icon{fill:#552222;}#mermaid-1752649207093 .error-text{fill:#552222;stroke:#552222;}#mermaid-1752649207093 .edge-thickness-normal{stroke-width:2px;}#mermaid-1752649207093 .edge-thickness-thick{stroke-width:3.5px;}#mermaid-1752649207093 .edge-pattern-solid{stroke-dasharray:0;}#mermaid-1752649207093 .edge-pattern-dashed{stroke-dasharray:3;}#mermaid-1752649207093 .edge-pattern-dotted{stroke-dasharray:2;}#mermaid-1752649207093 .marker{fill:#333333;stroke:#333333;}#mermaid-1752649207093 .marker.cross{stroke:#333333;}#mermaid-1752649207093 svg{font-family:"trebuchet ms",verdana,arial,sans-serif;font-size:16px;}#mermaid-1752649207093 .entityBox{fill:#ECECFF;stroke:#9370DB;}#mermaid-1752649207093 .attributeBoxOdd{fill:#ffffff;stroke:#9370DB;}#mermaid-1752649207093 .attributeBoxEven{fill:#f2f2f2;stroke:#9370DB;}#mermaid-1752649207093 .relationshipLabelBox{fill:hsl(80, 100%, 96.2745098039%);opacity:0.7;background-color:hsl(80, 100%, 96.2745098039%);}#mermaid-1752649207093 .relationshipLabelBox rect{opacity:0.5;}#mermaid-1752649207093 .relationshipLine{stroke:#333333;}#mermaid-1752649207093 .entityTitleText{text-anchor:middle;font-size:18px;fill:#333;}#mermaid-1752649207093 #MD_PARENT_START{fill:#f5f5f5!important;stroke:#333333!important;stroke-width:1;}#mermaid-1752649207093 #MD_PARENT_END{fill:#f5f5f5!important;stroke:#333333!important;stroke-width:1;}#mermaid-1752649207093 :root{--mermaid-font-family:"trebuchet ms",verdana,arial,sans-serif;}</style><g/><defs><marker orient="auto" markerHeight="240" markerWidth="190" refY="7" refX="0" id="MD_PARENT_START"><path d="M 18,7 L9,13 L1,7 L9,1 Z"/></marker></defs><defs><marker orient="auto" markerHeight="28" markerWidth="20" refY="7" refX="19" id="MD_PARENT_END"><path d="M 18,7 L9,13 L1,7 L9,1 Z"/></marker></defs><defs><marker orient="auto" markerHeight="18" markerWidth="18" refY="9" refX="0" id="ONLY_ONE_START"><path d="M9,0 L9,18 M15,0 L15,18" fill="none" stroke="gray"/></marker></defs><defs><marker orient="auto" markerHeight="18" markerWidth="18" refY="9" refX="18" id="ONLY_ONE_END"><path d="M3,0 L3,18 M9,0 L9,18" fill="none" stroke="gray"/></marker></defs><defs><marker orient="auto" markerHeight="18" markerWidth="30" refY="9" refX="0" id="ZERO_OR_ONE_START"><circle r="6" cy="9" cx="21" fill="white" stroke="gray"/><path d="M9,0 L9,18" fill="none" stroke="gray"/></marker></defs><defs><marker orient="auto" markerHeight="18" markerWidth="30" refY="9" refX="30" id="ZERO_OR_ONE_END"><circle r="6" cy="9" cx="9" fill="white" stroke="gray"/><path d="M21,0 L21,18" fill="none" stroke="gray"/></marker></defs><defs><marker orient="auto" markerHeight="36" markerWidth="45" refY="18" refX="18" id="ONE_OR_MORE_START"><path d="M0,18 Q 18,0 36,18 Q 18,36 0,18 M42,9 L42,27" fill="none" stroke="gray"/></marker></defs><defs><marker orient="auto" markerHeight="36" markerWidth="45" refY="18" refX="27" id="ONE_OR_MORE_END"><path d="M3,9 L3,27 M9,18 Q27,0 45,18 Q27,36 9,18" fill="none" stroke="gray"/></marker></defs><defs><marker orient="auto" markerHeight="36" markerWidth="57" refY="18" refX="18" id="ZERO_OR_MORE_START"><circle r="6" cy="18" cx="48" fill="white" stroke="gray"/><path d="M0,18 Q18,0 36,18 Q18,36 0,18" fill="none" stroke="gray"/></marker></defs><defs><marker orient="auto" markerHeight="36" markerWidth="57" refY="18" refX="39" id="ZERO_OR_MORE_END"><circle r="6" cy="18" cx="9" fill="white" stroke="gray"/><path d="M21,18 Q39,0 57,18 Q39,36 21,18" fill="none" stroke="gray"/></marker></defs><path style="stroke: gray; fill: none;" marker-start="url(#ONLY_ONE_START)" marker-end="url(#ZERO_OR_MORE_END)" d="M70,176L70,184.333C70,192.667,70,209.333,70,226C70,242.667,70,259.333,70,267.667L70,276" class="er relationshipLine"/><g transform="translate(20,20 )" id="entity-users-33ae1e26-be31-5c1d-bf65-e859e9d0308e"><rect height="156" width="100" y="0" x="0" class="er entityBox"/><text style="dominant-baseline: middle; text-anchor: middle; font-size: 12px;" transform="translate(50,12)" y="0" x="0" id="text-entity-users-33ae1e26-be31-5c1d-bf65-e859e9d0308e" class="er entityLabel">users</text><rect height="22" width="38.622047424316406" y="24" x="0" class="er attributeBoxOdd"/><text style="dominant-baseline: middle; font-size: 10.2px;" transform="translate(5,35)" y="0" x="0" id="text-entity-users-33ae1e26-be31-5c1d-bf65-e859e9d0308e-attr-1-type" class="er entityLabel">intpk</text><rect height="22" width="61.377952575683594" y="24" x="38.622047424316406" class="er attributeBoxOdd"/><text style="dominant-baseline: middle; font-size: 10.2px;" transform="translate(43.622047424316406,35)" y="0" x="0" id="text-entity-users-33ae1e26-be31-5c1d-bf65-e859e9d0308e-attr-1-name" class="er entityLabel">id</text><rect height="22" width="38.622047424316406" y="46" x="0" class="er attributeBoxEven"/><text style="dominant-baseline: middle; font-size: 10.2px;" transform="translate(5,57)" y="0" x="0" id="text-entity-users-33ae1e26-be31-5c1d-bf65-e859e9d0308e-attr-2-type" class="er entityLabel">string</text><rect height="22" width="61.377952575683594" y="46" x="38.622047424316406" class="er attributeBoxEven"/><text style="dominant-baseline: middle; font-size: 10.2px;" transform="translate(43.622047424316406,57)" y="0" x="0" id="text-entity-users-33ae1e26-be31-5c1d-bf65-e859e9d0308e-attr-2-name" class="er entityLabel">username</text><rect height="22" width="38.622047424316406" y="68" x="0" class="er attributeBoxOdd"/><text style="dominant-baseline: middle; font-size: 10.2px;" transform="translate(5,79)" y="0" x="0" id="text-entity-users-33ae1e26-be31-5c1d-bf65-e859e9d0308e-attr-3-type" class="er entityLabel">string</text><rect height="22" width="61.377952575683594" y="68" x="38.622047424316406" class="er attributeBoxOdd"/><text style="dominant-baseline: middle; font-size: 10.2px;" transform="translate(43.622047424316406,79)" y="0" x="0" id="text-entity-users-33ae1e26-be31-5c1d-bf65-e859e9d0308e-attr-3-name" class="er entityLabel">password</text><rect height="22" width="38.622047424316406" y="90" x="0" class="er attributeBoxEven"/><text style="dominant-baseline: middle; font-size: 10.2px;" transform="translate(5,101)" y="0" x="0" id="text-entity-users-33ae1e26-be31-5c1d-bf65-e859e9d0308e-attr-4-type" class="er entityLabel">string</text><rect height="22" width="61.377952575683594" y="90" x="38.622047424316406" class="er attributeBoxEven"/><text style="dominant-baseline: middle; font-size: 10.2px;" transform="translate(43.622047424316406,101)" y="0" x="0" id="text-entity-users-33ae1e26-be31-5c1d-bf65-e859e9d0308e-attr-4-name" class="er entityLabel">bio</text><rect height="22" width="38.622047424316406" y="112" x="0" class="er attributeBoxOdd"/><text style="dominant-baseline: middle; font-size: 10.2px;" transform="translate(5,123)" y="0" x="0" id="text-entity-users-33ae1e26-be31-5c1d-bf65-e859e9d0308e-attr-5-type" class="er entityLabel">int</text><rect height="22" width="61.377952575683594" y="112" x="38.622047424316406" class="er attributeBoxOdd"/><text style="dominant-baseline: middle; font-size: 10.2px;" transform="translate(43.622047424316406,123)" y="0" x="0" id="text-entity-users-33ae1e26-be31-5c1d-bf65-e859e9d0308e-attr-5-name" class="er entityLabel">age</text><rect height="22" width="38.622047424316406" y="134" x="0" class="er attributeBoxEven"/><text style="dominant-baseline: middle; font-size: 10.2px;" transform="translate(5,145)" y="0" x="0" id="text-entity-users-33ae1e26-be31-5c1d-bf65-e859e9d0308e-attr-6-type" class="er entityLabel">string</text><rect height="22" width="61.377952575683594" y="134" x="38.622047424316406" class="er attributeBoxEven"/><text style="dominant-baseline: middle; font-size: 10.2px;" transform="translate(43.622047424316406,145)" y="0" x="0" id="text-entity-users-33ae1e26-be31-5c1d-bf65-e859e9d0308e-attr-6-name" class="er entityLabel">profile_pic</text></g><g transform="translate(20,276 )" id="entity-favourites-e10cb959-4478-5aee-950d-b613a6628a20"><rect height="90" width="100" y="0" x="0" class="er entityBox"/><text style="dominant-baseline: middle; text-anchor: middle; font-size: 12px;" transform="translate(50,12)" y="0" x="0" id="text-entity-favourites-e10cb959-4478-5aee-950d-b613a6628a20" class="er entityLabel">favourites</text><rect height="22" width="40.99531555175781" y="24" x="0" class="er attributeBoxOdd"/><text style="dominant-baseline: middle; font-size: 10.2px;" transform="translate(5,35)" y="0" x="0" id="text-entity-favourites-e10cb959-4478-5aee-950d-b613a6628a20-attr-1-type" class="er entityLabel">intpk</text><rect height="22" width="59.00468444824219" y="24" x="40.99531555175781" class="er attributeBoxOdd"/><text style="dominant-baseline: middle; font-size: 10.2px;" transform="translate(45.99531555175781,35)" y="0" x="0" id="text-entity-favourites-e10cb959-4478-5aee-950d-b613a6628a20-attr-1-name" class="er entityLabel">id</text><rect height="22" width="40.99531555175781" y="46" x="0" class="er attributeBoxEven"/><text style="dominant-baseline: middle; font-size: 10.2px;" transform="translate(5,57)" y="0" x="0" id="text-entity-favourites-e10cb959-4478-5aee-950d-b613a6628a20-attr-2-type" class="er entityLabel">string</text><rect height="22" width="59.00468444824219" y="46" x="40.99531555175781" class="er attributeBoxEven"/><text style="dominant-baseline: middle; font-size: 10.2px;" transform="translate(45.99531555175781,57)" y="0" x="0" id="text-entity-favourites-e10cb959-4478-5aee-950d-b613a6628a20-attr-2-name" class="er entityLabel">username</text><rect height="22" width="40.99531555175781" y="68" x="0" class="er attributeBoxOdd"/><text style="dominant-baseline: middle; font-size: 10.2px;" transform="translate(5,79)" y="0" x="0" id="text-entity-favourites-e10cb959-4478-5aee-950d-b613a6628a20-attr-3-type" class="er entityLabel">string</text><rect height="22" width="59.00468444824219" y="68" x="40.99531555175781" class="er attributeBoxOdd"/><text style="dominant-baseline: middle; font-size: 10.2px;" transform="translate(45.99531555175781,79)" y="0" x="0" id="text-entity-favourites-e10cb959-4478-5aee-950d-b613a6628a20-attr-3-name" class="er entityLabel">filename</text></g><rect height="14" width="17.861328125" y="219" x="61.0693359375" class="er relationshipLabelBox"/><text style="text-anchor: middle; dominant-baseline: middle; font-size: 12px;" y="226" x="70" id="rel1" class="er relationshipLabel">has</text></svg>